<svg width="45" height="43" viewBox="0 0 45 43" fill="none" xmlns="http://www.w3.org/2000/svg">
<g filter="url(#filter0_d)">
<path d="M22.6875 38.5C33.0428 38.5 41.4375 30.4411 41.4375 20.5C41.4375 10.5589 33.0428 2.5 22.6875 2.5C12.3322 2.5 3.9375 10.5589 3.9375 20.5C3.9375 30.4411 12.3322 38.5 22.6875 38.5Z" fill="white"/>
</g>
<path d="M19.1687 30.467C19.0811 30.467 18.9942 30.4514 18.9125 30.421C18.8303 30.3906 18.7558 30.3439 18.6937 30.284C18.6335 30.2266 18.5857 30.1584 18.5531 30.0832C18.5205 30.0081 18.5037 29.9274 18.5037 29.846C18.5037 29.7646 18.5205 29.6839 18.5531 29.6088C18.5857 29.5336 18.6335 29.4654 18.6937 29.408L27.3781 21.071L18.826 12.879C18.7643 12.8209 18.7156 12.7512 18.683 12.6743C18.6504 12.5975 18.6346 12.515 18.6364 12.432C18.6346 12.349 18.6504 12.2665 18.683 12.1897C18.7156 12.1128 18.7643 12.0431 18.826 11.985C18.8866 11.9258 18.9591 11.879 19.0392 11.8477C19.1193 11.8164 19.2052 11.8012 19.2916 11.803C19.3774 11.8018 19.4625 11.8173 19.5418 11.8485C19.6211 11.8798 19.693 11.9262 19.7531 11.985L28.7468 20.633C28.807 20.6904 28.8548 20.7586 28.8874 20.8338C28.9201 20.9089 28.9369 20.9896 28.9369 21.071C28.9369 21.1524 28.9201 21.2331 28.8874 21.3082C28.8548 21.3834 28.807 21.4516 28.7468 21.509L19.6239 30.285C19.5619 30.3449 19.4873 30.3916 19.4052 30.422C19.3299 30.4508 19.2497 30.4661 19.1687 30.467Z" fill="#484848" stroke="#535353" stroke-width="0.889" stroke-miterlimit="10"/>
<defs>
<filter id="filter0_d" x="0.9375" y="0.5" width="43.5" height="42" filterUnits="userSpaceOnUse" color-interpolation-filters="sRGB">
<feFlood flood-opacity="0" result="BackgroundImageFix"/>
<feColorMatrix in="SourceAlpha" type="matrix" values="0 0 0 0 0 0 0 0 0 0 0 0 0 0 0 0 0 0 127 0"/>
<feOffset dy="1"/>
<feGaussianBlur stdDeviation="1.5"/>
<feColorMatrix type="matrix" values="0 0 0 0 0 0 0 0 0 0 0 0 0 0 0 0 0 0 0.42564 0"/>
<feBlend mode="normal" in2="BackgroundImageFix" result="effect1_dropShadow"/>
<feBlend mode="normal" in="SourceGraphic" in2="effect1_dropShadow" result="shape"/>
</filter>
</defs>
</svg>
