<svg width="44" height="43" viewBox="0 0 44 43" fill="none" xmlns="http://www.w3.org/2000/svg">
<g filter="url(#filter0_d)">
<path d="M22.1875 38.5C11.8322 38.5 3.4375 30.4411 3.4375 20.5C3.4375 10.5589 11.8322 2.5 22.1875 2.5C32.5428 2.5 40.9375 10.5589 40.9375 20.5C40.9375 30.4411 32.5428 38.5 22.1875 38.5Z" fill="white"/>
</g>
<path d="M25.7063 30.467C25.7939 30.467 25.8808 30.4514 25.9625 30.421C26.0447 30.3906 26.1192 30.3439 26.1813 30.284C26.2415 30.2266 26.2893 30.1584 26.3219 30.0832C26.3545 30.0081 26.3713 29.9274 26.3713 29.846C26.3713 29.7646 26.3545 29.6839 26.3219 29.6088C26.2893 29.5336 26.2415 29.4654 26.1813 29.408L17.4969 21.071L26.049 12.879C26.1107 12.8209 26.1594 12.7512 26.192 12.6743C26.2246 12.5975 26.2404 12.515 26.2386 12.432C26.2404 12.349 26.2246 12.2665 26.192 12.1897C26.1594 12.1128 26.1107 12.0431 26.049 11.985C25.9884 11.9258 25.9159 11.879 25.8358 11.8477C25.7557 11.8164 25.6698 11.8012 25.5834 11.803C25.4976 11.8018 25.4125 11.8173 25.3332 11.8485C25.2539 11.8798 25.182 11.9262 25.1219 11.985L16.1282 20.633C16.068 20.6904 16.0202 20.7586 15.9875 20.8338C15.9549 20.9089 15.9381 20.9896 15.9381 21.071C15.9381 21.1524 15.9549 21.2331 15.9875 21.3082C16.0202 21.3834 16.068 21.4516 16.1282 21.509L25.2511 30.285C25.3131 30.3449 25.3877 30.3916 25.4698 30.422C25.5451 30.4508 25.6253 30.4661 25.7063 30.467V30.467Z" fill="#484848" stroke="#535353" stroke-width="0.889" stroke-miterlimit="10"/>
<defs>
<filter id="filter0_d" x="0.4375" y="0.5" width="43.5" height="42" filterUnits="userSpaceOnUse" color-interpolation-filters="sRGB">
<feFlood flood-opacity="0" result="BackgroundImageFix"/>
<feColorMatrix in="SourceAlpha" type="matrix" values="0 0 0 0 0 0 0 0 0 0 0 0 0 0 0 0 0 0 127 0"/>
<feOffset dy="1"/>
<feGaussianBlur stdDeviation="1.5"/>
<feColorMatrix type="matrix" values="0 0 0 0 0 0 0 0 0 0 0 0 0 0 0 0 0 0 0.42564 0"/>
<feBlend mode="normal" in2="BackgroundImageFix" result="effect1_dropShadow"/>
<feBlend mode="normal" in="SourceGraphic" in2="effect1_dropShadow" result="shape"/>
</filter>
</defs>
</svg>
